<svg xmlns="http://www.w3.org/2000/svg" xmlns:xlink="http://www.w3.org/1999/xlink" width="118" height="29" viewBox="0 0 118 29">
    <defs>
        <path id="a" d="M0 .563h16.882v16.41H0z"/>
    </defs>
    <g fill="none" fill-rule="evenodd">
        <g transform="translate(0 5.691)">
            <mask id="b" fill="#fff">
                <use xlink:href="#a"/>
            </mask>
            <path fill="#35CCD1" d="M3.85 8.706c0 2.966 2.05 4.733 4.607 4.733 6.059 0 6.059-9.435 0-9.435C5.9 4.004 3.85 5.74 3.85 8.706zM13.19.943h3.692V16.5h-3.628l-.19-2.272c-.883 1.83-3.313 2.714-5.048 2.745C3.409 17.005 0 14.165 0 8.706 0 3.34 3.566.533 8.11.564c2.083 0 4.07.979 4.954 2.525L13.19.943z" mask="url(#b)"/>
        </g>
        <path fill="#FFF" d="M33.955 14.428c0-2.43-1.64-4.417-4.417-4.417s-4.418 1.987-4.418 4.417c0 2.43 1.798 4.418 4.418 4.418 2.618 0 4.417-1.988 4.417-4.418zM20.923 28.691V6.634h3.597l.252 2.146c1.2-1.736 3.282-2.493 5.05-2.493 4.796 0 7.983 3.566 7.983 8.141 0 4.544-2.87 8.142-7.857 8.142-1.64 0-4.07-.505-5.176-2.209v8.33h-3.849zM45.002 6.634l.283 1.8c1.2-1.926 2.81-2.21 4.387-2.21 1.61 0 3.155.631 4.008 1.483l-1.737 3.344c-.788-.662-1.514-1.009-2.776-1.009-2.019 0-3.882 1.073-3.882 3.945v8.204h-3.849V6.634h3.566zM55.921 22.192h3.85V6.572h-3.85v15.62zm4.197-19.944c0 2.997-4.544 2.997-4.544 0 0-2.998 4.544-2.998 4.544 0zM75.486 22.191V14.05c0-2.367-1.294-4.166-3.755-4.166-2.366 0-3.975 1.989-3.975 4.355v7.952h-3.82V6.603h3.44l.253 2.114c1.578-1.547 3.156-2.335 5.112-2.335 3.66 0 6.595 2.745 6.595 7.636v8.173h-3.85zM88.205 2.248v4.417h4.292V9.98h-4.323V16.7c0 1.484.82 2.21 2.019 2.21.6 0 1.294-.19 1.862-.474l1.073 3.282c-1.105.441-2.02.631-3.188.662-3.376.126-5.585-1.799-5.585-5.68V9.98h-2.903V6.664h2.903V2.658l3.85-.41zM96.158 22.192h3.85V6.572h-3.85v15.62zm4.196-19.944c0 2.997-4.544 2.997-4.544 0 0-2.998 4.544-2.998 4.544 0zM114.428 10.768c-1.104-1.042-2.366-1.389-3.85-1.389-1.83 0-2.839.57-2.839 1.547 0 1.01.915 1.577 2.903 1.704 2.934.19 6.658.852 6.658 4.985 0 2.746-2.24 5.112-6.689 5.112-2.462 0-4.923-.41-7.196-2.776l1.894-2.746c1.104 1.231 3.63 2.146 5.364 2.177 1.452.032 2.81-.725 2.81-1.86 0-1.074-.885-1.516-3.094-1.642-2.935-.22-6.437-1.294-6.437-4.828 0-3.597 3.724-4.86 6.564-4.86 2.43 0 4.26.473 6.058 2.052l-2.146 2.524z"/>
    </g>
</svg>
