<svg xmlns="http://www.w3.org/2000/svg" width="29" height="29" viewBox="0 0 29 29">
    <g fill="#FFF" fill-rule="nonzero">
        <path d="M20.576 0H8.424C3.779 0 0 3.779 0 8.424v12.152C0 25.221 3.779 29 8.424 29h12.152C25.221 29 29 25.221 29 20.576V8.424C29 3.779 25.221 0 20.576 0zm6.158 20.576a6.165 6.165 0 0 1-6.158 6.158H8.424a6.165 6.165 0 0 1-6.158-6.158V8.424a6.165 6.165 0 0 1 6.158-6.158h12.152a6.165 6.165 0 0 1 6.158 6.158v12.152z"/>
        <path d="M13.982 6.214c-4.283 0-7.768 3.485-7.768 7.768 0 4.283 3.485 7.768 7.768 7.768 4.283 0 7.768-3.485 7.768-7.768 0-4.283-3.485-7.768-7.768-7.768zm0 13.284a5.523 5.523 0 0 1-5.516-5.516 5.523 5.523 0 0 1 5.516-5.516 5.523 5.523 0 0 1 5.516 5.516 5.523 5.523 0 0 1-5.516 5.516z"/>
        <circle cx="22.786" cy="7.25" r="1.036"/>
    </g>
</svg>
