<svg xmlns="http://www.w3.org/2000/svg" width="25" height="26">
  <g fill="#FFF" fill-rule="evenodd">
    <path d="M3.03079711 0c1.64476464 0 3.02980895 1.39807295 3.02980895 3.05830933 0 1.7475912-1.4716341 3.10201149-3.02980895 3.05830934C1.42932737 6.16032082.00098816 4.80590053.00098816 3.05830933-.04230673 1.3543708 1.34278662 0 3.03079711 0M4.41924198 26H.88383838C.39773978 26 0 25.5941078 0 25.0980458V9.31371894c0-.49606206.35353535-.90195423.83963395-.90195423h3.57955797c.48609859 0 .88383838.40589217.88383838.90195423V25.1431562C5.30308036 25.5941078 4.90534058 26 4.41924198 26M24.9622532 14.0935149c0-2.9708715-2.0778711-5.29939725-4.8735304-5.29939725h-.7933675c-1.5111556 0-2.9845644.7627741-3.7779319 2.00735295-.2644415.2810148-.3778103.4014888-.3778103.4014888V9.59709521c0-.16058642-.2266947-.40148878-.3778103-.40148878h-3.7779319c-.1511155 0-.3778103.16058641-.3778103.3613308V24.5317683c0 .1605865.2266948.3211729.3778103.3211729h4.1556994c.1511156 0 .3778103-.1605864.3778103-.3211729v-8.6718029c0-1.4854357 1.057809-2.7300145 2.4556387-2.770127.7177882 0 1.36004.2810148 1.8511763.8029321.4533467.4817592.6422519 1.1642629.6422519 1.927037v8.6315994c0 .1605864.2266947.4014888.3778103.4014888h3.7779319c.1511156 0 .3778103-.2409024.3778103-.4014888v-10.357892h-.0377468z"/>
  </g>
</svg>
