<svg xmlns="http://www.w3.org/2000/svg" width="30" height="26" viewBox="0 0 30 26">
    <path fill="#FFF" fill-rule="nonzero" d="M26.946 7.4c0-.284-.006-.565-.018-.844A12.74 12.74 0 0 0 30 3.216c-1.104.503-2.29.838-3.536.979 1.272-.791 2.247-2.056 2.708-3.575a11.745 11.745 0 0 1-3.908 1.524C24.142.854 22.54.032 20.77.001c-3.4-.057-6.155 2.847-6.155 6.485 0 .518.053 1.02.16 1.503C9.657 7.657 5.12 4.963 2.087.902a6.95 6.95 0 0 0-.833 3.329c0 2.304 1.086 4.353 2.738 5.561a5.846 5.846 0 0 1-2.789-.863v.085c0 3.22 2.123 5.92 4.939 6.55a5.77 5.77 0 0 1-1.621.222 5.564 5.564 0 0 1-1.158-.128c.783 2.64 3.057 4.568 5.75 4.632-2.108 1.767-4.762 2.822-7.644 2.814-.496 0-.988-.033-1.469-.095C2.725 24.9 5.96 26 9.437 26c11.319.003 17.509-9.958 17.509-18.6z"/>
</svg>
