<?xml version="1.0" encoding="UTF-8"?>
<svg width="29px" height="29px" viewBox="0 0 29 29" version="1.1" xmlns="http://www.w3.org/2000/svg" xmlns:xlink="http://www.w3.org/1999/xlink">
    <!-- Generator: sketchtool 50.2 (55047) - http://www.bohemiancoding.com/sketch -->
    <title>12A3E930-F4FD-44C1-941C-FD278C7B151A</title>
    <desc>Created with sketchtool.</desc>
    <defs></defs>
    <g id="Managing-Editor" stroke="none" stroke-width="1" fill="none" fill-rule="evenodd">
        <g id="Assets" transform="translate(-31.000000, -18.000000)" fill="#FFFFFF" fill-rule="nonzero">
            <g id="001-add-copy" transform="translate(31.000000, 18.000000)">
                <path d="M14.5,29 C6.5044111,29 0,22.4948646 0,14.4995331 C0,6.50420168 6.5044111,0 14.5,0 C22.4955889,0 29,6.50420168 29,14.4995331 C29.0009337,22.4948646 22.4955889,29 14.5,29 Z M14.5,1.65639589 C7.41760577,1.65639589 1.65644922,7.41830065 1.65644922,14.4995331 C1.65644922,21.5807656 7.41760577,27.3417367 14.5,27.3417367 C21.5814605,27.3417367 27.342617,21.5807656 27.342617,14.4995331 C27.342617,7.41830065 21.5814605,1.65639589 14.5,1.65639589 Z" id="Shape"></path>
                <path d="M20.1775908,15 L8.82333642,15 C8.3690179,15 8,14.5538028 8,14.0005634 C8,13.4484507 8.36809072,13 8.82333642,13 L20.1775908,13 C20.6319093,13 21,13.4484507 21,14.0005634 C21,14.5538028 20.6328365,15 20.1775908,15 Z" id="Shape"></path>
                <path d="M15.0005634,21 C14.4484507,21 14,20.6319093 14,20.1775908 L14,8.82333642 C14,8.3690179 14.4484507,8 15.0005634,8 C15.5526761,8 16,8.3690179 16,8.82333642 L16,20.1775908 C16,20.6328365 15.5538028,21 15.0005634,21 Z" id="Shape"></path>
            </g>
        </g>
    </g>
</svg>