<?xml version="1.0" encoding="UTF-8"?>
<svg width="17px" height="16px" viewBox="0 0 17 16" version="1.1" xmlns="http://www.w3.org/2000/svg" xmlns:xlink="http://www.w3.org/1999/xlink">
    <!-- Generator: sketchtool 50.2 (55047) - http://www.bohemiancoding.com/sketch -->
    <title>D575A261-C92D-44B7-83BA-05289C0F8721</title>
    <desc>Created with sketchtool.</desc>
    <defs></defs>
    <g id="Managing-Editor" stroke="none" stroke-width="1" fill="none" fill-rule="evenodd">
        <g id="Assets" transform="translate(-281.000000, -25.000000)" fill="#C1C1C1" fill-rule="nonzero">
            <g id="004-edit-copy-6" transform="translate(281.384776, 25.000000)">
                <path d="M15.4290569,15 L0.557349193,15 C0.24468989,15 0,15.2317073 0,15.5 C0,15.7682927 0.258283772,16 0.557349193,16 L15.4426508,16 C15.7553101,16 16,15.7682927 16,15.5 C16,15.2317073 15.7417162,15 15.4290569,15 Z" id="Shape"></path>
                <path d="M0.0137420719,9.75 L0,12.4240506 C0,12.5748945 0.0549682875,12.7257384 0.164904863,12.835443 C0.274841438,12.9451477 0.412262156,13 0.563424947,13 L3.22938689,12.9862869 C3.38054968,12.9862869 3.5179704,12.9314346 3.62790698,12.82173 L12.8350951,3.63396624 C13.0549683,3.41455696 13.0549683,3.05801688 12.8350951,2.82489451 L10.1966173,0.164556962 C9.97674419,-0.0548523207 9.61945032,-0.0548523207 9.3858351,0.164556962 L7.54439746,2.01582278 L0.178646934,9.35232068 C0.0824524313,9.46202532 0.0137420719,9.59915612 0.0137420719,9.75 Z M9.79809725,1.37130802 L11.653277,3.22257384 L10.6088795,4.26476793 L8.75369979,2.41350211 L9.79809725,1.37130802 Z M1.15433404,9.99683544 L7.94291755,3.22257384 L9.79809725,5.07383966 L3.00951374,11.8343882 L1.14059197,11.8481013 L1.15433404,9.99683544 Z" id="Shape"></path>
            </g>
        </g>
    </g>
</svg>