<svg xmlns="http://www.w3.org/2000/svg" width="137" height="137" viewBox="0 0 137 137">
    <g fill="#FFF" fill-rule="nonzero">
        <path d="M68.5 6.85c33.994 0 61.65 27.656 61.65 61.65s-27.656 61.65-61.65 61.65S6.85 102.494 6.85 68.5 34.506 6.85 68.5 6.85zm0-6.85C30.672 0 0 30.67 0 68.5S30.672 137 68.5 137 137 106.33 137 68.5 106.328 0 68.5 0z"/>
        <path d="M95.34 62.036L59.308 37.93C53.088 33.77 48 36.56 48 44.128V94.86c0 7.567 5.096 10.367 11.326 6.223l35.999-23.948c6.227-4.148 6.234-10.94.015-15.099zm-4.802 10.04L58.54 93.364c-2.075 1.382-3.774.45-3.774-2.073V47.696c0-2.523 1.696-3.451 3.77-2.064l32.008 21.412c2.073 1.385 2.07 3.65-.007 5.033z"/>
    </g>
</svg>
