<?xml version="1.0" encoding="UTF-8"?>
<svg width="21px" height="21px" viewBox="0 0 21 21" version="1.1" xmlns="http://www.w3.org/2000/svg" xmlns:xlink="http://www.w3.org/1999/xlink">
    <!-- Generator: sketchtool 50.2 (55047) - http://www.bohemiancoding.com/sketch -->
    <title>D41AD2AD-7982-4571-8B99-D1C8B0354715</title>
    <desc>Created with sketchtool.</desc>
    <defs></defs>
    <g id="Managing-Editor" stroke="none" stroke-width="1" fill="none" fill-rule="evenodd">
        <g id="Assets" transform="translate(-26.000000, -83.000000)" fill="#35CCD1" fill-rule="nonzero">
            <path d="M46.9342889,92.3340975 C46.9010806,92.0389026 46.5568864,91.8170767 46.259262,91.8170767 C45.2970029,91.8170767 44.4431201,91.2520808 44.0850175,90.3782945 C43.7191793,89.4833336 43.9550754,88.4396032 44.6722182,87.7817827 C44.8979565,87.5754275 44.9253826,87.2299917 44.7360563,86.9900384 C44.2435578,86.364644 43.6837832,85.7997263 43.0725944,85.3101309 C42.8332603,85.1180745 42.4821119,85.1447968 42.2745796,85.3745925 C41.648701,86.0677301 40.5244636,86.325342 39.6557347,85.9628726 C38.7516878,85.5825885 38.1815991,84.666531 38.237389,83.6831991 C38.2557512,83.3743306 38.030013,83.1057798 37.7220744,83.0699157 C36.9377337,82.9792007 36.1465168,82.9763878 35.3598319,83.0636649 C35.0554096,83.097263 34.8296713,83.3594849 34.8399073,83.6644467 C34.8741314,84.6380898 34.2971666,85.5381295 33.4021055,85.90474 C32.5437688,86.2553328 31.4274233,85.9999087 30.8027948,85.3129438 C30.5963565,85.0866641 30.2509121,85.058848 30.0104059,85.2462944 C29.3810893,85.7400309 28.8087346,86.3054175 28.3117041,86.9256549 C28.1178459,87.1667803 28.1463659,87.5162791 28.3743701,87.7237282 C29.105187,88.3855336 29.3411612,89.4383277 28.9614927,90.3436025 C28.5990145,91.2066842 27.7027813,91.7629289 26.6767623,91.7629289 C26.3438199,91.7522244 26.1066736,91.9756912 26.0702617,92.2783871 C25.9779036,93.0672404 25.9768096,93.8710175 26.0657297,94.6662779 C26.0987036,94.9627229 26.4533682,95.1825955 26.7542743,95.1825955 C27.6686353,95.159233 28.5465063,95.7253228 28.9147667,96.6214557 C29.2818551,97.5164167 29.0458809,98.559522 28.3276441,99.2178895 C28.1029998,99.4242446 28.0744797,99.7691335 28.2638061,100.009087 C28.7516945,100.630496 29.3115472,101.195961 29.9249239,101.689619 C30.1655082,101.883473 30.5155626,101.856126 30.7241107,101.62633 C31.3523334,100.931473 32.4764927,100.67433 33.3417836,101.037503 C34.2480965,101.416615 34.8181852,102.332594 34.7623952,103.316473 C34.7441893,103.625498 34.9710214,103.894517 35.2777098,103.929835 C35.6789441,103.976638 36.0826006,104 36.4873511,104 C36.8715515,104 37.25583,103.978903 37.6400304,103.936164 C37.9445309,103.902565 38.1701129,103.640344 38.1598769,103.334835 C38.1246371,102.361739 38.7026176,101.461699 39.5965067,101.095713 C40.4606255,100.742777 41.5722828,101.001092 42.1969894,101.687353 C42.4045998,101.913164 42.7476219,101.940433 42.9894564,101.753612 C43.617601,101.261048 44.1887836,100.69613 44.6881582,100.074173 C44.8819384,99.8335951 44.8545904,99.4835492 44.6254141,99.2761783 C43.8945972,98.6143729 43.657451,97.5614226 44.0371194,96.6567729 C44.39405,95.805177 45.2569967,95.2333834 46.185188,95.2333834 L46.3150519,95.2367432 C46.6161144,95.2611995 46.8931106,95.0292941 46.9296007,94.7219883 C47.0221151,93.9324318 47.023209,93.1293579 46.9342889,92.3340975 Z M36.500039,97 C34.5699577,97 33,95.4300598 33,93.5 C33,91.5700183 34.5699577,90 36.500039,90 C38.4300423,90 40,91.5700183 40,93.5 C40,95.4300598 38.4300423,97 36.500039,97 Z" id="Shape"></path>
        </g>
    </g>
</svg>