<svg width="71" height="75" viewBox="0 0 71 75" xmlns="http://www.w3.org/2000/svg">
  <g fill="#FFF" fill-rule="nonzero">
    <path d="M69.908 45.917l-3.566-3.676c-1.411-1.454-3.871-1.454-5.283 0l-19.26 19.852-2.654 10.034-.65.67a1.316 1.316 0 0 0-.007 1.812l-.007.026.024-.006c.243.245.558.371.875.371.32 0 .64-.126.885-.378l.65-.67 9.734-2.737 19.259-19.852c1.456-1.503 1.456-3.945 0-5.446zm-25.22 16.846L57.506 49.55l5.31 5.473-12.818 13.212-5.31-5.473zm-1.128 2.484l4.029 4.154-5.541 1.558 1.512-5.712zm24.578-15.71L64.585 53.2l-5.31-5.473 3.553-3.662a1.233 1.233 0 0 1 1.744 0l3.566 3.676a1.3 1.3 0 0 1 0 1.797zM9.18 47.124h33.575c.713 0 1.291-.742 1.291-1.66 0-.917-.578-1.659-1.291-1.659H9.18c-.713 0-1.291.742-1.291 1.66 0 .917.578 1.659 1.291 1.659zM36.87 51.77H9.149c-.696 0-1.26.742-1.26 1.66 0 .917.564 1.658 1.26 1.658h27.72c.696 0 1.26-.741 1.26-1.659 0-.917-.563-1.66-1.26-1.66zM9.16 23.894h16.523c.701 0 1.27-.742 1.27-1.66 0-.917-.569-1.659-1.27-1.659H9.16c-.702 0-1.271.742-1.271 1.66 0 .917.57 1.659 1.27 1.659zM25.683 63.053c.701 0 1.27-.742 1.27-1.66 0-.917-.569-1.658-1.27-1.658H9.16c-.702 0-1.271.741-1.271 1.659 0 .917.57 1.66 1.27 1.66h16.524zM45.425 28.54H9.14c-.69 0-1.251.742-1.251 1.66 0 .917.56 1.658 1.251 1.658h36.285c.69 0 1.25-.741 1.25-1.659 0-.917-.558-1.66-1.25-1.66zM9.122 39.823h17.256c.68 0 1.233-.742 1.233-1.66 0-.917-.552-1.659-1.233-1.659H9.122c-.68 0-1.233.742-1.233 1.66 0 .917.552 1.659 1.233 1.659zM47.333 38.164c0-.918-.556-1.66-1.241-1.66h-8.693c-.685 0-1.242.742-1.242 1.66 0 .917.557 1.659 1.242 1.659h8.693c.686 0 1.241-.742 1.241-1.66zM33.051 39.339c.296-.316.477-.752.477-1.186 0-.434-.181-.868-.477-1.185-.624-.618-1.726-.618-2.334 0a1.77 1.77 0 0 0-.476 1.185c0 .453.18.87.476 1.186.313.302.74.484 1.167.484.428 0 .857-.182 1.167-.484z"/>
    <path d="M31.724 72.414H2.538v-62.07h8.883v2.587a1.28 1.28 0 0 0 1.268 1.293h29.186c.7 0 1.27-.578 1.27-1.293v-2.586h8.882v28.448a1.28 1.28 0 0 0 1.269 1.293c.7 0 1.269-.578 1.269-1.293V9.052a1.28 1.28 0 0 0-1.27-1.293h-10.15V5.172a1.28 1.28 0 0 0-1.27-1.293h-7.613V1.293A1.28 1.28 0 0 0 32.992 0h-11.42c-.7 0-1.269.578-1.269 1.293V3.88H12.69c-.7 0-1.268.578-1.268 1.293V7.76H1.269C.569 7.759 0 8.337 0 9.052v64.655A1.28 1.28 0 0 0 1.269 75h30.455c.7 0 1.269-.578 1.269-1.293a1.28 1.28 0 0 0-1.27-1.293zM22.84 2.586h8.883V7.76H22.84V2.586zm-8.883 3.88h6.345v2.586a1.28 1.28 0 0 0 1.27 1.293h11.42c.7 0 1.269-.578 1.269-1.293V6.466h6.344v5.172H13.958V6.466z"/>
  </g>
</svg>
