<svg width="79" height="86" viewBox="0 0 79 86" xmlns="http://www.w3.org/2000/svg">
  <g fill="#FFF" fill-rule="nonzero">
    <path d="M25.445 47.213a1.808 1.808 0 0 0 0 2.54 1.78 1.78 0 0 0 1.26.524c.456 0 .912-.176 1.257-.525l10.683-10.774c.163-.165.295-.367.384-.586.05-.125.057-.255.078-.387.018-.101.061-.194.061-.299 0-.136-.05-.258-.078-.384-.022-.097-.022-.201-.06-.294a1.885 1.885 0 0 0-.396-.6L27.962 25.664a1.77 1.77 0 0 0-2.517 0 1.808 1.808 0 0 0 0 2.539l7.638 7.708H1.78c-.982 0-1.78.804-1.78 1.795 0 .992.798 1.796 1.78 1.796h31.31l-7.645 7.711z"/>
    <path d="M71.243 0c-.276 0-.546.054-.815.082C70.29.05 70.162 0 70.018 0H26.906c-4.95 0-8.982 4.02-8.982 8.958v17.917c0 .99.805 1.792 1.797 1.792.991 0 1.796-.803 1.796-1.792V8.958c0-2.963 2.418-5.375 5.39-5.375h34.36L47.777 9.35a7.732 7.732 0 0 0-4.704 7.113v55.205H26.906c-2.583 0-4.778-1.792-5.313-2.534l-.076-20.765a1.795 1.795 0 0 0-1.796-1.785h-.007a1.795 1.795 0 0 0-1.79 1.8l.083 20.88c-.072.784.298 1.604 1.125 2.507 1.469 1.606 4.386 3.48 7.774 3.48h16.167v3.013c0 4.265 3.481 7.737 7.757 7.737 1.06 0 2.09-.211 3.054-.624l20.413-8.725A7.732 7.732 0 0 0 79 69.538V7.737C79 3.472 75.519 0 71.243 0zm4.164 69.538a4.145 4.145 0 0 1-2.525 3.817L52.468 82.08a4.163 4.163 0 0 1-5.802-3.816V16.462c0-1.663.992-3.164 2.526-3.816L69.605 3.92a4.163 4.163 0 0 1 5.802 3.816v61.802z"/>
    <path d="M52.113 39.692c-.916 0-1.66.79-1.66 1.764v7.057c0 .974.744 1.764 1.66 1.764.917 0 1.66-.79 1.66-1.764v-7.057c0-.973-.743-1.764-1.66-1.764z"/>
  </g>
</svg>
