<svg width="71" height="61" viewBox="0 0 71 61" xmlns="http://www.w3.org/2000/svg">
  <g fill="#FFF" fill-rule="nonzero">
    <path d="M47.52 9.937L40.913.575a1.347 1.347 0 0 0-1.1-.575c-.436 0-.845.214-1.1.575l-6.607 9.362a1.4 1.4 0 0 0-.256.808v45.082c0 2.852 2.275 5.173 5.071 5.173h5.784c2.796 0 5.07-2.32 5.07-5.173V10.745a1.4 1.4 0 0 0-.255-.808zm-7.707-6.189l4.118 5.835h-8.236l4.118-5.835zm-5.253 8.6h6.434v35.807h-2.362V21.749c0-.764-.607-1.382-1.355-1.382s-1.355.618-1.355 1.382v26.406H34.56V12.348zm10.506 43.479c0 1.328-1.06 2.408-2.361 2.408h-5.784c-1.301 0-2.36-1.08-2.36-2.408v-4.908h10.505v4.908zm0-7.672h-1.362V12.348h1.362v35.807z"/>
    <path d="M38.46 16.316a1.345 1.345 0 0 0-.564-.843 1.304 1.304 0 0 0-.23-.121 1.342 1.342 0 0 0-.248-.077 1.366 1.366 0 0 0-.52 0 1.406 1.406 0 0 0-.476.197 1.355 1.355 0 0 0-.49.596 1.327 1.327 0 1 0 2.527.248zM13.303 25.88v-.21a1.968 1.968 0 0 1 2.012-1.976l4.166-.178c2.433-.018 4.407-2.023 4.407-4.485 0-2.472-1.991-4.484-4.438-4.484h-9.308a1.714 1.714 0 0 1-1.703-1.72c0-.46.179-.89.504-1.214.312-.31.72-.48 1.15-.48h8.193c3.037 0 5.508-2.498 5.508-5.567 0-3.07-2.47-5.566-5.508-5.566H9.02c-.755 0-1.368.619-1.368 1.382 0 .763.613 1.382 1.368 1.382h9.265c1.529 0 2.773 1.257 2.773 2.802 0 1.545-1.244 2.802-2.773 2.803H10.15a4.325 4.325 0 0 0-3.127 1.274 4.458 4.458 0 0 0-1.32 3.183c0 2.473 1.99 4.485 4.438 4.485h9.307c.94 0 1.703.772 1.703 1.72a1.714 1.714 0 0 1-1.76 1.722l-4.166.179c-2.572.017-4.659 2.136-4.659 4.741v.209C4.629 26.57 0 31.68 0 37.863v11.075C0 55.59 5.355 61 11.938 61c6.582 0 11.938-5.41 11.938-12.062V37.863c0-6.184-4.631-11.296-10.573-11.982zM2.735 37.864c0-4.657 3.407-8.526 7.835-9.195v11.27H2.735v-2.075zM21.14 48.938c0 5.127-4.128 9.298-9.202 9.298s-9.203-4.17-9.203-9.298v-6.236H21.14v6.236zm0-9h-7.834v-11.27c4.428.669 7.834 4.538 7.834 9.195v2.076zM4.618 1.066a1.345 1.345 0 0 0-.362-.678A1.338 1.338 0 0 0 3.318 0a1.338 1.338 0 0 0-1.103.59 1.314 1.314 0 0 0-.2.995c.018.085.043.168.078.248a1.27 1.27 0 0 0 .489.595 1.347 1.347 0 0 0 .736.224 1.338 1.338 0 0 0 1.103-.59 1.308 1.308 0 0 0 .197-.477 1.305 1.305 0 0 0 0-.519zM70.99 13.768c-.154-3.256-1.806-4.868-3.133-6.163-1.436-1.4-2.303-2.246-1.484-5.018.37-1.255-.14-1.914-.477-2.195-.42-.35-1.17-.644-2.356-.06-1.537.755-3.871 2.978-5.675 5.403-1.656 2.227-3.598 5.562-3.445 8.803.114 2.424 1.149 4.646 2.838 6.209a6.663 6.663 0 0 0-1.33 3.998c0 .95.195 1.854.55 2.675v26.965c0 3.282 2.688 5.952 5.993 5.952s5.994-2.67 5.994-5.952V28.311a6.703 6.703 0 0 0 1.018-3.566 6.66 6.66 0 0 0-1.3-3.957c1.884-1.737 2.935-4.299 2.806-7.02zm-5.304 40.617c0 1.76-1.442 3.192-3.215 3.192-1.772 0-3.214-1.432-3.214-3.192V30.547c.721.42 1.533.714 2.408.849.07.01.141.016.212.016h1.657c.071 0 .142-.006.212-.016a6.74 6.74 0 0 0 .273-.049c.058-.01.116-.024.173-.036l.074-.017a6.837 6.837 0 0 0 1.42-.498v23.589zm-1.102-26.137l-.018.009a4.144 4.144 0 0 1-.362.168l-.073.029a4.018 4.018 0 0 1-.112.04l-.059.02a4.14 4.14 0 0 1-.128.04l-.048.015a3.768 3.768 0 0 1-.141.036l-.04.01c-.061.014-.122.026-.183.037h-1.432a3.84 3.84 0 0 1-.2-.042l-.078-.02c-.04-.01-.079-.02-.118-.032l-.098-.03-.073-.024c-1.586-.539-2.713-2.05-2.713-3.759a3.956 3.956 0 0 1 1.958-3.412c.092-.055.186-.106.283-.153l.028-.014c.056-.027.113-.053.17-.077l.029-.011a3.979 3.979 0 0 1 1.156-.285l.073-.006c.1-.007.2-.012.301-.012.103 0 .205.005.306.013l.071.005a4.055 4.055 0 0 1 1.145.282l.042.017a3.993 3.993 0 0 1 .899.53 3.955 3.955 0 0 1 1.535 3.123c0 1.488-.854 2.826-2.12 3.503zm1.527-9.321c-.03-.018-.062-.032-.092-.05a6.713 6.713 0 0 0-.22-.117c-.038-.02-.076-.04-.114-.058a6.768 6.768 0 0 0-.767-.317l-.044-.014a6.733 6.733 0 0 0-1.243-.291l-.078-.01a6.657 6.657 0 0 0-.334-.034l-.1-.007a6.936 6.936 0 0 0-.413-.014c-.138 0-.274.006-.409.014l-.097.007a6.693 6.693 0 0 0-.33.032l-.078.01a6.756 6.756 0 0 0-1.636.433l-.03.012a6.841 6.841 0 0 0-.377.168l-.08.04a6.608 6.608 0 0 0-.25.131c-.024.014-.049.025-.072.038-1.278-1.08-2.067-2.702-2.151-4.49-.094-1.979 1.074-4.686 3.203-7.429 1.068-1.374 2.096-2.412 2.91-3.117-.23 2.947 1.315 4.456 2.6 5.71 1.182 1.152 2.202 2.148 2.305 4.323.093 1.988-.698 3.843-2.103 5.03z"/>
  </g>
</svg>
