<svg xmlns="http://www.w3.org/2000/svg" viewBox="0 0 74.667 100" height="100" width="74.667">
  <defs>
    <clipPath id="a">
      <path d="M547.555 687.887h-399.34c-7.113 40.824-45.805 68.125-86.426 60.976C26.223 742.605.207 711.668 0 675.379V62.535h1.121C7.215 26.473 38.27.066 74.668 0h348.441c6.875 0 12.446 5.602 12.446 12.508v37.52h112c6.875 0 12.445 5.6 12.445 12.507V675.38c0 6.906-5.57 12.508-12.445 12.508zM24.891 675.379c0 27.629 22.285 50.027 49.777 50.027 27.488 0 49.777-22.398 49.777-50.027V130.824c-28.265 25.68-71.289 25.68-99.554 0zM410.668 25.016h-336c-27.492 0-49.777 22.398-49.777 50.027s22.285 50.027 49.777 50.027c27.488 0 49.777-22.398 49.777-50.027V62.535c0-6.906 5.571-12.508 12.446-12.508h273.777zm124.441 50.027H149.332v587.828h385.777z"/>
    </clipPath>
    <clipPath id="b">
      <path d="M0 0h560v750H0z"/>
    </clipPath>
    <clipPath id="c">
      <path d="M494.852 637.168H183.738c-6.871 0-12.445-5.449-12.445-12.168V503.32c0-6.722 5.574-12.168 12.445-12.168h311.114c6.871 0 12.441 5.446 12.441 12.168V625c0 6.719-5.57 12.168-12.441 12.168zm-12.446-121.68H196.184v97.344h286.222z"/>
    </clipPath>
    <clipPath id="d">
      <path d="M0 0h560v750H0z"/>
    </clipPath>
    <clipPath id="e">
      <path d="M330.352 464.602H183.531c-6.758 0-12.238-5.715-12.238-12.762V311.438c0-7.051 5.48-12.766 12.238-12.766h146.821c6.757 0 12.238 5.715 12.238 12.766V451.84c0 7.047-5.481 12.762-12.238 12.762zm-12.235-140.403H195.766v114.875h122.351z"/>
    </clipPath>
    <clipPath id="f">
      <path d="M0 0h560v750H0z"/>
    </clipPath>
    <clipPath id="g">
      <path d="M495.059 272.125H348.234c-6.757 0-12.234-5.52-12.234-12.328V111.883c0-6.805 5.477-12.324 12.234-12.324h146.825c6.757 0 12.234 5.519 12.234 12.324v147.914c0 6.808-5.477 12.328-12.234 12.328zm-12.235-147.914H360.469v123.262h122.355z"/>
    </clipPath>
    <clipPath id="h">
      <path d="M0 0h560v750H0z"/>
    </clipPath>
    <clipPath id="i">
      <path d="M368.941 451.328h138.352v-26.551H368.941z"/>
    </clipPath>
    <clipPath id="j">
      <path d="M368.941 398.23h138.352v-26.55H368.941z"/>
    </clipPath>
    <clipPath id="k">
      <path d="M368.941 351.77h138.352v-26.547H368.941z"/>
    </clipPath>
    <clipPath id="l">
      <path d="M171.293 272.125h138.355v-26.551H171.293z"/>
    </clipPath>
    <clipPath id="m">
      <path d="M171.293 225.664h138.355v-26.551H171.293z"/>
    </clipPath>
    <clipPath id="n">
      <path d="M171.293 172.566h138.355V146.02H171.293z"/>
    </clipPath>
    <clipPath id="o">
      <path d="M171.293 126.105h138.355V99.559H171.293z"/>
    </clipPath>
  </defs>
  <g clip-path="url(#a)" transform="matrix(.13333 0 0 -.13333 0 100)">
    <g clip-path="url(#b)">
      <path d="M0 0h610v800H0z" fill="#FFF"/>
    </g>
  </g>
  <g clip-path="url(#c)" transform="matrix(.13333 0 0 -.13333 0 100)">
    <g clip-path="url(#d)">
      <path d="M121.293 441.152h436v246.016h-436z" fill="#FFF"/>
    </g>
  </g>
  <g clip-path="url(#e)" transform="matrix(.13333 0 0 -.13333 0 100)">
    <g clip-path="url(#f)">
      <path d="M121.293 248.672H392.59v265.93H121.293z" fill="#FFF"/>
    </g>
  </g>
  <g clip-path="url(#g)" transform="matrix(.13333 0 0 -.13333 0 100)">
    <g clip-path="url(#h)">
      <path d="M286 49.559h271.293v272.566H286z" fill="#FFF"/>
    </g>
  </g>
  <g clip-path="url(#i)" transform="matrix(.13333 0 0 -.13333 0 100)">
    <path d="M318.941 374.777h238.352v126.551H318.941z" fill="#FFF"/>
  </g>
  <g clip-path="url(#j)" transform="matrix(.13333 0 0 -.13333 0 100)">
    <path d="M318.941 321.68h238.352v126.551H318.941z" fill="#FFF"/>
  </g>
  <g clip-path="url(#k)" transform="matrix(.13333 0 0 -.13333 0 100)">
    <path d="M318.941 275.223h238.352V401.77H318.941z" fill="#FFF"/>
  </g>
  <g clip-path="url(#l)" transform="matrix(.13333 0 0 -.13333 0 100)">
    <path d="M121.293 195.574h238.355v126.551H121.293z" fill="#FFF"/>
  </g>
  <g clip-path="url(#m)" transform="matrix(.13333 0 0 -.13333 0 100)">
    <path d="M121.293 149.113h238.355v126.551H121.293z" fill="#FFF"/>
  </g>
  <g clip-path="url(#n)" transform="matrix(.13333 0 0 -.13333 0 100)">
    <path d="M121.293 96.02h238.355v126.546H121.293z" fill="#FFF"/>
  </g>
  <g clip-path="url(#o)" transform="matrix(.13333 0 0 -.13333 0 100)">
    <path d="M121.293 49.559h238.355v126.547H121.293z" fill="#FFF"/>
  </g>
</svg>
