<svg width="71" height="75" viewBox="0 0 71 75" xmlns="http://www.w3.org/2000/svg">
  <g fill="#FFF" fill-rule="nonzero">
    <path d="M70.595 20.296L51.399.442A1.453 1.453 0 0 0 50.355 0h-28.61c-3.201 0-5.806 2.592-5.806 5.778v20.184H4.344C1.95 25.962 0 27.9 0 30.285v21.642c0 2.384 1.949 4.323 4.344 4.323H15.94v12.982c0 3.18 2.605 5.768 5.807 5.768h43.447C68.395 75 71 72.414 71 69.236v-47.94a1.44 1.44 0 0 0-.405-1zM50.715 3.894l15.757 16.298H50.714V3.894zM4.344 53.365a1.444 1.444 0 0 1-1.447-1.438V30.285c0-.793.649-1.439 1.446-1.439h39.128c.798 0 1.446.646 1.446 1.439v21.642c0 .793-.648 1.438-1.446 1.438H4.344zm63.757 15.87c0 1.589-1.305 2.88-2.909 2.88H21.746c-1.604 0-2.91-1.293-2.91-2.882V56.25h24.636c2.396 0 4.344-1.94 4.344-4.323V30.285c0-2.384-1.948-4.323-4.344-4.323H18.837V5.778a2.904 2.904 0 0 1 2.909-2.893h26.07v18.75c0 .796.65 1.442 1.45 1.442h18.836v46.159z"/>
    <path d="M17.213 36.6c-.47-.633-1.051-1.045-1.746-1.234-.452-.126-1.423-.189-2.912-.189H8.626v12.61h2.449v-4.756h1.596c1.109 0 1.955-.06 2.54-.181.43-.098.853-.297 1.27-.598.416-.301.76-.715 1.03-1.243.27-.527.405-1.178.405-1.953 0-1.003-.235-1.822-.703-2.455zm-2.097 3.472c-.185.28-.44.487-.766.619-.325.132-.97.198-1.935.198h-1.34V37.31h1.183c.882 0 1.47.029 1.761.086.398.075.726.261.985.56.259.298.389.676.389 1.135 0 .373-.093.7-.277.98zM30.109 38.622c-.277-.806-.68-1.487-1.21-2.043a4.239 4.239 0 0 0-1.909-1.161c-.553-.16-1.356-.241-2.41-.241h-4.673v12.61h4.811c.945 0 1.7-.088 2.264-.266.754-.24 1.353-.576 1.796-1.007.588-.567 1.04-1.31 1.357-2.227.259-.752.388-1.646.388-2.684 0-1.182-.138-2.175-.414-2.98zm-2.488 5.179c-.173.565-.396.97-.67 1.217a2.363 2.363 0 0 1-1.032.524c-.317.08-.832.12-1.546.12h-1.91V37.31h1.15c1.042 0 1.742.04 2.099.12.478.104.872.302 1.183.594.311.293.553.7.726 1.222.173.522.259 1.27.259 2.245 0 .975-.086 1.745-.26 2.31zM41.14 37.31v-2.133h-8.626v12.611h2.541v-5.359h5.253v-2.134h-5.253V37.31z"/>
  </g>
</svg>
