<svg xmlns="http://www.w3.org/2000/svg" viewBox="0 0 108 89.333" height="89.333" width="108">
  <defs>
    <clipPath id="a">
      <path d="M752.941 567.879H601.723v85.012c0 9.445-7.692 17.109-17.176 17.109H225.449c-9.484 0-17.176-7.664-17.176-17.109v-85.016H57.059C25.594 567.879 0 542.379 0 511.039V238.66c0-31.344 25.594-56.84 57.059-56.84h151.214V17.11c0-9.446 7.692-17.11 17.176-17.11h359.102c9.484 0 17.176 7.664 17.176 17.11v164.71h151.214c31.461 0 57.059 25.496 57.059 56.84v272.379c0 31.34-25.598 56.84-57.059 56.84zM601.723 533.66h40.968v-47.887h-40.968zM242.625 635.781h324.746V485.773H242.625zm-75.32-102.125h40.968v-47.883h-40.968zm400.07-499.437h-324.75v225.328h324.75zM775.648 238.66c0-12.476-10.187-22.621-22.707-22.621H601.723v43.504h31.332c9.484 0 17.179 7.664 17.179 17.109 0 9.45-7.695 17.114-17.179 17.114h-456.11c-9.484 0-17.179-7.664-17.179-17.114 0-9.445 7.695-17.109 17.179-17.109h31.332v-43.504H57.059c-12.52 0-22.707 10.145-22.707 22.621v272.379c0 12.473 10.187 22.621 22.707 22.621h75.894v-64.992c0-9.449 7.692-17.113 17.176-17.113h509.742c9.484 0 17.176 7.664 17.176 17.113v64.992h75.894c12.52 0 22.707-10.148 22.707-22.621z"/>
    </clipPath>
    <clipPath id="b">
      <path d="M0 0h810v670H0z"/>
    </clipPath>
    <clipPath id="c">
      <path d="M108.66 367.844c12.727 0 23.047 10.293 23.047 22.988 0 12.699-10.32 22.992-23.047 22.992-12.73 0-23.05-10.293-23.05-22.992 0-12.695 10.32-22.988 23.05-22.988z"/>
    </clipPath>
    <clipPath id="d">
      <path d="M0 0h810v670H0z"/>
    </clipPath>
    <clipPath id="e">
      <path d="M398.09 131.371h-78.375c-9.27 0-16.789-7.348-16.789-16.422 0-9.066 7.519-16.418 16.789-16.418h78.375c9.269 0 16.789 7.352 16.789 16.418 0 9.074-7.52 16.422-16.789 16.422z"/>
    </clipPath>
    <clipPath id="f">
      <path d="M0 0h810v670H0z"/>
    </clipPath>
    <clipPath id="g">
      <path d="M489.941 216.766H320.059c-9.461 0-17.133-7.356-17.133-16.422 0-9.071 7.672-16.422 17.133-16.422h169.882c9.461 0 17.133 7.351 17.133 16.422 0 9.066-7.672 16.422-17.133 16.422z"/>
    </clipPath>
    <clipPath id="h">
      <path d="M0 0h810v670H0z"/>
    </clipPath>
  </defs>
  <g clip-path="url(#a)" transform="matrix(.13333 0 0 -.13333 0 89.333)">
    <g clip-path="url(#b)">
      <path d="M0 0h860v720H0z" fill="#FFF"/>
    </g>
  </g>
  <g clip-path="url(#c)" transform="matrix(.13333 0 0 -.13333 0 89.333)">
    <g clip-path="url(#d)">
      <path d="M35.61 317.844h146.097v145.98H35.61z" fill="#FFF"/>
    </g>
  </g>
  <g clip-path="url(#e)" transform="matrix(.13333 0 0 -.13333 0 89.333)">
    <g clip-path="url(#f)">
      <path d="M252.926 48.531h211.953v132.84H252.926z" fill="#FFF"/>
    </g>
  </g>
  <g clip-path="url(#g)" transform="matrix(.13333 0 0 -.13333 0 89.333)">
    <g clip-path="url(#h)">
      <path d="M252.926 133.922h304.148v132.844H252.926z" fill="#FFF"/>
    </g>
  </g>
</svg>
