<svg width="75" height="77" viewBox="0 0 75 77" xmlns="http://www.w3.org/2000/svg">
  <g fill="#FFF" fill-rule="nonzero">
    <path d="M59.865 46.337c-.253-.27-.509-.538-.772-.801-4.473-4.476-9.955-7.575-15.932-9.087 6.32-3.153 10.671-9.687 10.671-17.22C53.832 8.626 45.212 0 34.616 0 24.02 0 15.399 8.626 15.399 19.229c0 7.533 4.352 14.067 10.672 17.22-5.978 1.512-11.46 4.61-15.932 9.087C3.6 52.078 0 60.776 0 70.029c0 .847.686 1.534 1.533 1.534h46.45C50.798 74.886 54.996 77 59.679 77 68.126 77 75 70.122 75 61.668c0-8.392-6.772-15.23-15.135-15.33zm-41.4-27.108c0-8.911 7.245-16.161 16.15-16.161 8.906 0 16.151 7.25 16.151 16.16 0 8.912-7.245 16.162-16.15 16.162-8.906 0-16.151-7.25-16.151-16.161zM3.102 68.495c.803-16.699 14.63-30.037 31.514-30.037 8.22 0 15.715 3.163 21.336 8.336-6.654 1.67-11.597 7.705-11.597 14.873 0 2.452.579 4.77 1.606 6.828H3.102zm56.576 5.437c-6.759 0-12.257-5.502-12.257-12.264 0-6.763 5.498-12.265 12.257-12.265 6.758 0 12.256 5.502 12.256 12.265 0 6.762-5.498 12.264-12.256 12.264z"/>
    <path d="M21.5 46.167c-.42-.736-1.33-.976-2.032-.537C13.044 49.65 8.36 56.308 6.62 63.896c-.191.834.3 1.672 1.095 1.873.117.029.233.043.348.043.67 0 1.277-.478 1.44-1.19 1.556-6.781 5.742-12.732 11.485-16.326.703-.44.932-1.393.513-2.13zM35.233 40.803c-2.372 0-4.734.227-7.022.675-.864.169-1.399.883-1.194 1.596.176.61.836 1.02 1.564 1.02.124 0 .248-.012.373-.036 2.045-.4 4.157-.603 6.28-.603.888 0 1.608-.593 1.608-1.326 0-.732-.72-1.326-1.609-1.326zM66.218 60.317h-4.804v-4.805a1.546 1.546 0 1 0-3.091 0v4.805h-4.804a1.546 1.546 0 0 0 0 3.092h4.804v4.806a1.546 1.546 0 1 0 3.091 0v-4.806h4.804a1.546 1.546 0 0 0 0-3.092z"/>
  </g>
</svg>
