<svg width="77" height="77" viewBox="0 0 77 77" xmlns="http://www.w3.org/2000/svg">
  <g fill="#FFF" fill-rule="nonzero">
    <path d="M7.897 5.077v12.692h2.578V5.077c0-1.402 1.154-2.539 2.578-2.539h51.552c1.424 0 2.578 1.137 2.578 2.539h2.578C69.76 2.273 67.452 0 64.605 0H13.053c-2.847 0-5.156 2.273-5.156 5.077zM5.119 77h58.865c2.827 0 5.119-2.315 5.119-5.17v-5.172h-2.56v5.171c0 1.428-1.145 2.586-2.56 2.586-1.413 0-2.558-1.158-2.558-2.586v-3.878c0-.714-.573-1.293-1.28-1.293H10.237V40.803H7.678v25.855H1.28c-.707 0-1.28.579-1.28 1.293v3.878C0 74.685 2.292 77 5.119 77zm-2.56-7.756h56.306v2.585c0 .909.236 1.8.688 2.586H5.119c-1.414 0-2.56-1.158-2.56-2.586v-2.585zM1.286 38.83h25.727c.71 0 1.286-.569 1.286-1.27V22.33c0-.702-.575-1.27-1.286-1.27H1.286c-.71 0-1.286.568-1.286 1.27v15.23c0 .701.576 1.27 1.286 1.27zm1.287-15.232h23.153v12.693H2.573V23.598z"/>
    <path d="M8.114 25.667L5.63 28.34a1.41 1.41 0 0 0 0 1.89l2.485 2.675 1.758-1.89-1.607-1.73 1.607-1.729-1.758-1.89zM20.185 25.667l-1.758 1.89 1.607 1.73-1.607 1.728 1.758 1.891 2.485-2.674a1.41 1.41 0 0 0 0-1.891l-2.485-2.674zM11.846 32.748l2.702-7.739 2.563.816-2.703 7.739zM75.72 7.897H32.211c-.707 0-1.28.576-1.28 1.287V34.91c0 .711.573 1.287 1.28 1.287h43.51c.706 0 1.279-.576 1.279-1.287V9.184c0-.71-.573-1.287-1.28-1.287zm-1.28 25.727H33.492v-3.131l11.491-6.93 11.204 7.282c.385.25.873.274 1.28.062l9.264-4.824 7.71 4.428v3.113zm0-6.075l-7.038-4.046a1.273 1.273 0 0 0-1.223-.026l-9.223 4.803-11.248-7.314a1.275 1.275 0 0 0-1.354-.021L33.49 27.493V10.47h40.95V27.55z"/>
    <path d="M60.547 21.718a4.607 4.607 0 1 0 0-9.214 4.607 4.607 0 0 0 0 9.214zm0-6.581a1.974 1.974 0 1 1 0 3.948 1.974 1.974 0 0 1 0-3.948zM12.504 42.073v15.23c0 .702.567 1.27 1.268 1.27h31.687c.7 0 1.267-.568 1.267-1.27v-15.23c0-.702-.567-1.27-1.267-1.27H13.772c-.7 0-1.268.568-1.268 1.27zm2.535 1.269h29.153v12.692H15.039V43.342z"/>
    <path d="M17.769 46.068h5.265v2.633h-5.265zM25.667 46.068h11.846v2.633H25.667zM39.487 46.068h2.633v2.633h-2.633zM17.769 51.333h15.137v2.633H17.769zM36.197 51.333h6.581v2.633h-6.581zM12.504 5.265h2.633v2.632h-2.633zM17.769 5.265h2.633v2.632h-2.633zM23.034 5.265h2.633v2.632h-2.633zM12.504 9.872h15.137v2.632H12.504zM75.715 46.068H51.302c-.71 0-1.285.568-1.285 1.27v15.23c0 .702.575 1.27 1.285 1.27h24.413c.71 0 1.285-.568 1.285-1.27v-15.23c0-.702-.575-1.27-1.285-1.27zM74.43 61.3H52.587V48.607H74.43v12.692z"/>
    <path d="M55.282 51.333h2.633v2.633h-2.633zM55.282 55.94h2.633v2.633h-2.633zM60.547 51.333h11.846v2.633H60.547zM60.547 55.94h11.846v2.633H60.547zM67.128 38.829h2.633v5.265h-2.633z"/>
  </g>
</svg>
