<?xml version="1.0" encoding="UTF-8"?>
<svg width="28px" height="18px" viewBox="0 0 28 18" version="1.1" xmlns="http://www.w3.org/2000/svg" xmlns:xlink="http://www.w3.org/1999/xlink">
    <!-- Generator: sketchtool 50.2 (55047) - http://www.bohemiancoding.com/sketch -->
    <title>DD09F002-3627-475F-99B5-A39E71B40576</title>
    <desc>Created with sketchtool.</desc>
    <defs></defs>
    <g id="Managing-Editor" stroke="none" stroke-width="1" fill="none" fill-rule="evenodd">
        <g id="Assets" transform="translate(-317.000000, -24.000000)" fill="#A8A7A8">
            <g id="Group-6" transform="translate(317.589851, 24.000000)">
                <g id="Group-7">
                    <g id="social-group" fill-rule="nonzero">
                        <path d="M8.91476883,12.0559279 C8.81659846,12.0251222 8.20059812,11.4204703 8.58578568,10.2835241 L8.58053993,10.2835241 C9.58472539,9.27983061 10.4442782,7.66503749 10.4442782,6.07388598 C10.4442782,3.62948753 8.67646213,2.34782609 6.72954136,2.34782609 C4.78112181,2.34782609 3.09124255,3.62948753 3.09124255,6.07388598 C3.09124255,7.67076879 3.87885369,9.29200962 4.88828489,10.2949867 C5.28171576,11.296531 4.57803655,12.0029134 4.4304063,12.0559279 C2.39205969,12.7709073 0,14.0762103 0,15.3636031 C0,15.711063 0,15.5004378 0,15.8464649 C0,17.6009584 3.50490701,18 6.74902556,18 C9.99689107,18 13.4583333,17.6009584 13.4583333,15.8464649 C13.4583333,15.5011542 13.4583333,15.7117794 13.4583333,15.3636031 C13.4583333,14.0368077 11.0542834,12.7429672 8.91476883,12.0559279 Z" id="Shape"></path>
                        <path d="M14.7043544,8.5998386 C14.6124286,8.57078749 14.0292275,8.43686894 14.3931631,7.37898321 L14.3886421,7.37898321 C15.3380393,6.44651328 15.992822,4.94294093 15.992822,3.46558545 C15.992822,1.19180428 14.4783074,0 12.6382852,0 C11.2835105,0 10.1163547,0.650461551 9.59267925,1.8975338 C10.6920209,2.75135316 11.4485247,4.08061881 11.4485247,5.87045092 C11.4485247,7.78144744 10.4961136,9.5252229 9.5,10.6504222 C11.0868496,11.2151475 13.5665847,12.3509753 14.2763721,14.0869565 C16.7764515,13.9565808 19,13.4683803 19,12.1235263 C19,11.8025469 19,11.9981105 19,11.6750054 C18.9992465,10.4421044 16.7267211,9.23825457 14.7043544,8.5998386 Z" id="Shape"></path>
                    </g>
                    <polygon id="+" points="27 6.93424036 23.8909091 6.93424036 23.8909091 10 22.1090909 10 22.1090909 6.93424036 19 6.93424036 19 5.08390023 22.1090909 5.08390023 22.1090909 2 23.8909091 2 23.8909091 5.08390023 27 5.08390023"></polygon>
                </g>
            </g>
        </g>
    </g>
</svg>